<svg width="228" height="41" viewBox="0 0 228 41" fill="none" xmlns="http://www.w3.org/2000/svg">
<g id="Group 19644">
<g id="Group 19100">
<g id="Group 19065">
<g id="Group 18148">
<g id="Group 4805">
<path id="Rectangle 652" d="M40.8602 0H0V40.8602H40.8602V0Z" fill="#E24413"/>
<path id="Icon awesome-facebook-f" d="M24.8879 21.732L25.3537 18.6953H22.4396V16.7242C22.4191 16.497 22.4501 16.2681 22.5302 16.0545C22.6104 15.8409 22.7376 15.6481 22.9025 15.4904C23.0674 15.3328 23.2657 15.2143 23.4826 15.1438C23.6996 15.0733 23.9297 15.0526 24.1557 15.0832H25.4804V12.4976C24.7014 12.3718 23.9142 12.3032 23.1252 12.2925C20.7251 12.2925 19.1569 13.7471 19.1569 16.3785V18.6953H16.4887V21.732H19.1569V29.0738H22.4396V21.732H24.8879Z" fill="white"/>
</g>
<g id="Group 4807">
<path id="Rectangle 654" d="M165.892 0H125.032V40.8602H165.892V0Z" fill="#2E2E2E"/>
<path id="Icon awesome-linkedin-in" opacity="0.5" d="M141.546 27.4311H138.577V17.869H141.546V27.4311ZM140.057 16.5648C139.715 16.5657 139.381 16.4655 139.097 16.2768C138.812 16.0881 138.59 15.8194 138.458 15.5045C138.326 15.1896 138.291 14.8427 138.356 14.5077C138.421 14.1726 138.584 13.8643 138.824 13.6217C139.064 13.3791 139.371 13.2131 139.705 13.1447C140.04 13.0763 140.387 13.1084 140.703 13.2372C141.019 13.3659 141.29 13.5854 141.482 13.868C141.673 14.1506 141.777 14.4836 141.779 14.8249C141.781 15.2839 141.6 15.7247 141.277 16.0508C140.955 16.3769 140.516 16.5617 140.057 16.5648ZM152.655 27.4336H149.7V22.7755C149.7 21.6666 149.678 20.2422 148.156 20.2422C146.612 20.2422 146.375 21.4475 146.375 22.6938V27.4287H143.407V17.869H146.254V19.1765H146.296C146.581 18.6891 146.993 18.2881 147.487 18.0163C147.982 17.7444 148.541 17.6119 149.106 17.6328C152.11 17.6328 152.663 19.6113 152.663 22.1822V27.4344L152.655 27.4336Z" fill="white"/>
</g>
<g id="Group 4808">
<path id="Rectangle 655" d="M228 0H187.14V40.8602H228V0Z" fill="#2E2E2E"/>
<path id="Icon ionic-logo-twitter" opacity="0.5" d="M216.396 14.8262C215.729 15.1214 215.022 15.3161 214.297 15.4039C215.061 14.947 215.633 14.2278 215.905 13.3805C215.188 13.8076 214.403 14.1078 213.584 14.268C213.083 13.732 212.432 13.3591 211.717 13.1979C211.001 13.0367 210.253 13.0947 209.571 13.3644C208.889 13.634 208.303 14.1028 207.891 14.7096C207.479 15.3165 207.259 16.0334 207.26 16.767C207.259 17.049 207.29 17.3302 207.355 17.6047C205.901 17.5326 204.478 17.1548 203.179 16.4958C201.881 15.8368 200.736 14.9115 199.819 13.7801C199.351 14.5863 199.208 15.5406 199.419 16.4486C199.63 17.3566 200.18 18.15 200.955 18.667C200.373 18.6527 199.802 18.4959 199.294 18.2102V18.2552C199.294 19.0998 199.586 19.9184 200.121 20.5722C200.655 21.2259 201.4 21.6745 202.228 21.8419C201.914 21.927 201.59 21.9701 201.265 21.9702C201.034 21.9706 200.804 21.9479 200.578 21.9023C200.811 22.6292 201.266 23.2649 201.879 23.7205C202.491 24.176 203.231 24.4287 203.995 24.443C202.699 25.4596 201.099 26.0104 199.453 26.0063C199.161 26.0058 198.87 25.9881 198.581 25.9532C200.245 27.0368 202.19 27.6116 204.176 27.6072C205.546 27.617 206.904 27.3544 208.172 26.8347C209.439 26.3149 210.591 25.5484 211.56 24.5797C212.528 23.611 213.295 22.4593 213.815 21.1918C214.334 19.9242 214.597 18.566 214.587 17.1961C214.587 17.0375 214.587 16.879 214.576 16.7245C215.291 16.205 215.907 15.5621 216.396 14.8262Z" fill="white"/>
</g>
<g id="Group 4806">
<path id="Rectangle 653" d="M103.785 0H62.9247V40.8602H103.785V0Z" fill="#2E2E2E"/>
<path id="Icon awesome-youtube" opacity="0.5" d="M91.7058 16.5664C91.6101 16.2074 91.4219 15.8798 91.1601 15.6163C90.8983 15.3527 90.5719 15.1624 90.2136 15.0644C88.8979 14.7097 83.6204 14.7097 83.6204 14.7097C83.6204 14.7097 78.3429 14.7097 77.0272 15.0644C76.6689 15.1624 76.3425 15.3527 76.0807 15.6163C75.8188 15.8798 75.6307 16.2074 75.535 16.5664C75.2917 17.9146 75.1735 19.2825 75.1819 20.6524C75.1735 22.0224 75.2917 23.3902 75.535 24.7384C75.6311 25.0945 75.8198 25.4188 76.0819 25.6784C76.344 25.9379 76.6702 26.1234 77.0272 26.216C78.3429 26.5706 83.6204 26.5706 83.6204 26.5706C83.6204 26.5706 88.8979 26.5706 90.2136 26.216C90.5706 26.1234 90.8968 25.9379 91.1589 25.6784C91.421 25.4188 91.6097 25.0945 91.7058 24.7384C91.9491 23.3902 92.0672 22.0224 92.0588 20.6524C92.0672 19.2825 91.9491 17.9146 91.7058 16.5664ZM81.8945 23.1637V18.142L86.3074 20.6516L81.8945 23.1604V23.1637Z" fill="white"/>
</g>
</g>
</g>
</g>
</g>
</svg>
