<svg width="20" height="20" viewBox="0 0 20 20" fill="none" xmlns="http://www.w3.org/2000/svg">
<path id="Icon awesome-location-arrow" d="M16.642 1.10644L2.01116 7.85939C1.65579 8.01784 1.36528 8.29302 1.1878 8.63928C1.01032 8.98555 0.956546 9.38208 1.0354 9.76311C1.11426 10.1441 1.321 10.4868 1.62133 10.7341C1.92167 10.9815 2.29754 11.1188 2.6866 11.1231H8.87656V17.3133C8.88093 17.7024 9.01819 18.0783 9.26555 18.3786C9.51291 18.679 9.85551 18.8857 10.2365 18.9646C10.6175 19.0435 11.0141 18.9897 11.3603 18.8122C11.7066 18.6347 11.9817 18.3442 12.1402 17.9888L18.8929 3.36007C19.008 3.04577 19.0309 2.70512 18.9589 2.37825C18.8869 2.05137 18.7229 1.75188 18.4864 1.51506C18.2499 1.27824 17.9506 1.11396 17.6238 1.04157C17.297 0.969172 16.9564 0.991681 16.642 1.10644Z" stroke="#E24413" stroke-width="1.5"/>
</svg>
