<svg width="20" height="20" viewBox="0 0 20 20" fill="none" xmlns="http://www.w3.org/2000/svg">
<g id="Group 4186">
<path id="Path 3259" d="M10.0015 0.000244141C7.34893 0.00024418 4.80501 1.05381 2.92937 2.92918C1.05372 4.80454 0 7.34808 0 10.0002C0 12.6524 1.05372 15.1959 2.92937 17.0713C4.80501 18.9467 7.34893 20.0002 10.0015 20.0002C10.1952 19.9937 10.3788 19.9122 10.5136 19.7728C10.6483 19.6335 10.7236 19.4473 10.7236 19.2535C10.7236 19.0596 10.6483 18.8734 10.5136 18.7341C10.3788 18.5947 10.1952 18.5132 10.0015 18.5067C8.31898 18.5065 6.6743 18.0075 5.27542 17.0728C3.87654 16.1381 2.78627 14.8096 2.14248 13.2554C1.49869 11.7011 1.33029 9.99095 1.65858 8.34102C1.98686 6.6911 2.79708 5.17555 3.98679 3.98602C5.1765 2.79648 6.69227 1.98638 8.34244 1.65815C9.99261 1.32992 11.7031 1.49829 13.2575 2.14199C14.812 2.78568 16.1407 3.87578 17.0755 5.27446C18.0104 6.67313 18.5094 8.31756 18.5096 9.99982V12.3127C18.5096 12.7282 18.3445 13.1266 18.0507 13.4204C17.7569 13.7142 17.3584 13.8792 16.9428 13.8792C16.5273 13.8792 16.1288 13.7142 15.835 13.4204C15.5412 13.1266 15.3761 12.7282 15.3761 12.3127L15.3761 9.99982C15.3789 8.735 14.936 7.50962 14.1252 6.53876C13.3144 5.5679 12.1875 4.9136 10.9423 4.69073C9.69706 4.46785 8.41312 4.69064 7.31582 5.31997C6.21852 5.94931 5.37799 6.94498 4.94176 8.13222C4.50553 9.31946 4.50148 10.6224 4.93033 11.8123C5.35917 13.0022 6.19351 14.0031 7.28688 14.6393C8.38024 15.2754 9.66278 15.5061 10.9094 15.291C12.1559 15.0759 13.2869 14.4286 14.1037 13.4628C14.3707 14.1204 14.858 14.6647 15.4823 15.0027C16.1065 15.3406 16.8288 15.451 17.5255 15.3151C18.2222 15.1793 18.85 14.8055 19.3014 14.2577C19.7528 13.71 19.9998 13.0224 20 12.3127V9.99982C19.9978 7.3489 18.9437 4.80716 17.0692 2.93243C15.1947 1.05771 12.6528 0.0031637 10.0015 0.000244141ZM10.0015 13.8801C9.2341 13.8801 8.48395 13.6525 7.84589 13.2263C7.20783 12.8 6.71053 12.1941 6.41686 11.4852C6.12319 10.7764 6.04636 9.99636 6.19607 9.24384C6.34578 8.49131 6.71531 7.80007 7.25793 7.25752C7.80055 6.71498 8.4919 6.3455 9.24454 6.19582C9.99718 6.04613 10.7773 6.12295 11.4863 6.41658C12.1953 6.7102 12.8012 7.20743 13.2276 7.84539C13.6539 8.48336 13.8815 9.2334 13.8815 10.0007C13.8815 11.0295 13.4727 12.0163 12.745 12.7438C12.0174 13.4713 11.0305 13.8801 10.0015 13.8801Z" fill="#E24413"/>
</g>
</svg>
