<svg width="18" height="18" viewBox="0 0 18 18" fill="none" xmlns="http://www.w3.org/2000/svg">
<path id="Path 3260" d="M13.0734 10.1168C12.6611 10.1155 12.2564 10.2267 11.9026 10.4384C11.5489 10.65 11.2596 10.9541 11.0658 11.318C11.01 11.3994 10.9709 11.491 10.9505 11.5876C10.9301 11.6842 10.929 11.7838 10.9471 11.8809C10.9838 12.0768 11.0968 12.2502 11.2612 12.3628C11.4257 12.4755 11.6282 12.5182 11.8242 12.4815C11.9212 12.4634 12.0137 12.4263 12.0964 12.3724C12.1791 12.3185 12.2504 12.2489 12.3062 12.1674C12.6367 11.6841 12.7871 11.6085 12.9859 11.6178C14.3169 12.1934 15.5015 13.0609 16.4521 14.1561C16.5164 14.3335 16.514 14.5282 16.4453 14.704C16.3541 15.0479 16.1931 15.3694 15.9722 15.6484C15.7514 15.9274 15.4754 16.1579 15.1616 16.3257C14.8526 16.4485 14.5215 16.5062 14.1892 16.4949C13.8569 16.4836 13.5305 16.4038 13.2305 16.2602C10.6322 15.2226 8.26465 13.6815 6.26408 11.7257C4.3142 9.72768 2.77773 7.3646 1.74269 4.77186C1.59927 4.4719 1.51942 4.14554 1.50817 3.81326C1.49691 3.48097 1.55448 3.14995 1.67728 2.84098C1.84497 2.52739 2.07542 2.25168 2.3543 2.031C2.63317 1.81032 2.95449 1.6494 3.29825 1.55827C3.47354 1.48907 3.66802 1.48605 3.84537 1.54977C4.93813 2.49741 5.80492 3.67759 6.38217 5.00376C6.39237 5.21528 6.31676 5.36394 5.8342 5.69439C5.75276 5.75017 5.6831 5.82144 5.62921 5.90414C5.57531 5.98683 5.53823 6.07933 5.52008 6.17636C5.50194 6.27338 5.50309 6.37303 5.52346 6.46961C5.54383 6.5662 5.58302 6.65782 5.6388 6.73925C5.69459 6.82069 5.76587 6.89034 5.84857 6.94423C5.93127 6.99813 6.02378 7.0352 6.12082 7.05334C6.21785 7.07149 6.31751 7.07034 6.4141 7.04997C6.51069 7.02961 6.60233 6.99041 6.68377 6.93464C7.04721 6.74064 7.35088 6.45122 7.5621 6.09753C7.77332 5.74384 7.88409 5.33926 7.88251 4.92731C7.2728 2.98733 6.03707 1.3042 4.3687 0.141331C3.86874 -0.0438441 3.31955 -0.0471522 2.81739 0.131987C2.27764 0.286337 1.77596 0.551412 1.34432 0.910324C0.912676 1.26924 0.560532 1.71411 0.310325 2.21661C0.0991648 2.71133 -0.00642669 3.24466 0.000302547 3.78251C0.00703178 4.32036 0.125934 4.85088 0.349405 5.34016C1.46146 8.11816 3.11148 10.6491 5.20468 12.7876L5.21997 12.8029C7.35792 14.8924 9.88725 16.5396 12.663 17.65C13.1939 17.8739 13.7631 17.9928 14.3392 18C14.8376 18.0015 15.3304 17.8949 15.7835 17.6874C16.2861 17.4371 16.7311 17.0849 17.09 16.6531C17.449 16.2214 17.714 15.7196 17.8683 15.1797C18.0468 14.6787 18.0438 14.131 17.8598 13.632C16.696 11.9628 15.011 10.727 13.0691 10.1185L13.0734 10.1168Z" fill="#E24413"/>
</svg>
