<svg width="98" height="81" viewBox="0 0 98 81" fill="none" xmlns="http://www.w3.org/2000/svg">
<g id="Group 4363">
<path id="Path 13" d="M22.9101 31.2539V22.676H0.416695V31.2539H5.5779V49.6025H0.416695V58.1804H22.9101V49.6025H17.7489V31.2539H22.9101Z" fill="white"/>
<path id="Path 14" d="M47.734 36.2993C46.3436 35.8964 39.1903 33.8582 37.9514 33.4567C36.7124 33.0551 35.7013 32.4758 35.7013 31.745C35.7013 31.0143 36.8388 30.2348 39.139 30.2348C41.1442 30.16 43.1419 30.5191 44.9955 31.2876C46.8491 32.0562 48.5148 33.2159 49.8788 34.6877C49.8788 34.6877 50.2738 35.2144 50.4054 35.3947H57.4047V23.2448H49.8906V25.4555C46.4778 23.3356 42.5267 22.2431 38.5096 22.3087C29.8396 22.3087 25.0115 26.7853 25.0115 33.4803C25.0115 40.1754 31.1036 42.9404 32.7968 43.6448C34.4899 44.3492 41.1126 46.2109 43.9447 47.0917C46.7768 47.9726 47.8117 48.6019 47.8117 49.0548C47.8117 49.5077 46.5727 50.6901 43.0336 50.6901C41.1673 50.7478 39.3114 50.3904 37.6001 49.6436C35.8887 48.8967 34.3646 47.7791 33.1378 46.3715C32.96 46.1358 32.7533 45.8554 32.6822 45.7501C32.6111 45.6447 32.411 45.3551 32.2793 45.1708H25.2801V58.1462H33.1378V55.4366C36.4846 57.6076 40.3616 58.8218 44.3489 58.948C50.6174 58.948 58.6054 56.2305 58.6054 47.7566C58.6054 39.2827 49.1243 36.7022 47.734 36.2993Z" fill="white"/>
<path id="Path 15" d="M78.5538 22.1914C68.1036 22.1914 59.5323 27.3921 59.5323 40.6677C59.5323 53.9434 68.837 58.9163 78.5998 58.9163C88.3627 58.9163 97.5752 53.9895 97.5752 40.8047C97.5752 27.6199 88.3627 22.1914 78.5538 22.1914ZM78.6459 50.0659C75.0699 50.0659 72.779 49.2443 72.779 40.6217C72.779 31.999 74.4748 31.0866 78.7828 31.0866C81.395 31.0866 84.5576 31.2683 84.5576 40.3478C84.5576 49.4273 82.2206 50.0659 78.6459 50.0659Z" fill="white"/>
<g id="Group 4362">
<path id="Path 16" d="M15.4056 18.7605C17.7557 15.3062 20.642 12.2491 23.9558 9.70473C25.3089 10.6989 26.7324 11.5935 28.2152 12.3814C25.7135 15.1635 23.4621 18.2444 23.0895 18.7605H24.5944C25.4976 17.5492 27.3593 15.1121 29.3343 12.9516C31.5253 14.0194 33.8112 14.8803 36.1623 15.5229C35.5264 16.8646 35.0472 18.0377 34.7654 18.7605H36.0728C36.373 18.0166 36.8128 16.9791 37.3618 15.8323C40.4743 16.5845 43.6598 16.9934 46.8613 17.0515V18.7632H48.0753V17.0568C51.2545 17.038 54.4223 16.6752 57.5234 15.9745C58.0409 17.0634 58.4569 18.0469 58.7453 18.7592H60.0527C59.7815 18.0654 59.3285 16.9568 58.7361 15.6809C61.1283 15.0666 63.4575 14.2291 65.6931 13.1793C67.5878 15.2859 69.3573 17.594 70.2303 18.7632H71.7339C71.3731 18.2629 69.2428 15.3399 66.8228 12.6224C68.4698 11.7774 70.0468 10.8027 71.539 9.70736C74.8529 12.2517 77.7393 15.3088 80.0892 18.7632H81.5481C77.887 13.1345 72.8782 8.50932 66.9761 5.30752C61.0741 2.10573 54.4659 0.428711 47.7514 0.428711C41.0368 0.428711 34.4286 2.10573 28.5266 5.30752C22.6246 8.50932 17.6157 13.1345 13.9547 18.7632H15.4148L15.4056 18.7605ZM36.7022 14.4156C34.4665 13.8182 32.2899 13.0183 30.1993 12.026C30.4785 11.7376 30.7576 11.4572 31.0327 11.1925C33.6657 8.85568 36.4931 6.74757 39.4842 4.89111C40.3373 5.35412 41.2333 5.73333 42.1596 6.02342C41.4184 6.99114 39.9608 8.95688 38.3756 11.4493C37.7594 12.4236 37.1959 13.4427 36.7022 14.4183V14.4156ZM46.86 15.8402C43.8444 15.7841 40.8433 15.4085 37.9069 14.7198C38.3559 13.8455 38.8575 12.9463 39.3986 12.0957C41.2261 9.22416 42.8746 7.06751 43.4236 6.36574C44.5508 6.62831 45.6998 6.7861 46.8561 6.8371V15.8389L46.86 15.8402ZM48.074 15.8402V6.85553C49.2188 6.83763 50.3597 6.71644 51.4827 6.49345C52.1107 7.30187 53.6815 9.37952 55.4116 12.0997C55.9817 12.995 56.5057 13.943 56.9731 14.8646C54.0487 15.5025 51.0657 15.8325 48.0726 15.8495L48.074 15.8402ZM58.1897 14.5657C57.6582 13.4965 57.0733 12.4546 56.4372 11.444C54.9336 9.07406 53.5406 7.18996 52.773 6.17747C53.7587 5.90545 54.7152 5.53722 55.6288 5.07808C58.5138 6.88187 61.241 8.92642 63.7814 11.1899C64.1264 11.5204 64.4753 11.8732 64.8229 12.2432C62.6873 13.2212 60.4664 14.0013 58.1883 14.5736L58.1897 14.5657ZM70.5068 8.94898C69.0655 9.98116 67.5453 10.8986 65.9604 11.6928C65.5128 11.2149 65.0612 10.7541 64.6148 10.3249C62.1824 8.13411 59.5697 6.15215 56.8046 4.40001C57.3909 4.02411 57.9406 3.59387 58.4464 3.11497C62.7731 4.34912 66.8534 6.32293 70.5068 8.94898ZM47.7422 1.63376C50.8755 1.63291 53.9976 2.0082 57.0415 2.75158C54.3077 4.64152 51.063 5.65388 47.7395 5.65388C44.416 5.65388 41.1713 4.64152 38.4375 2.75158C41.4831 2.00779 44.607 1.63249 47.7422 1.63376ZM37.0313 3.12156C37.4398 3.51 37.8778 3.86612 38.3414 4.18671C35.4548 5.99729 32.7282 8.05125 30.1914 10.3262C29.8175 10.6843 29.4409 11.0674 29.0657 11.4624C27.6432 10.7234 26.2753 9.88392 24.9723 8.9503C28.6255 6.32603 32.7054 4.354 37.0313 3.12156Z" fill="white"/>
<path id="Path 17" d="M80.0809 62.2042C77.7808 65.5852 74.9666 68.586 71.74 71.098C70.1863 69.9378 68.5383 68.9094 66.8132 68.0237C68.9132 65.6669 70.7947 63.1522 71.4912 62.2042H69.9744C69.0436 63.4418 67.4123 65.5419 65.6782 67.4707C63.4427 66.4207 61.1134 65.5831 58.7211 64.9691C59.2346 63.8737 59.6428 62.9033 59.9166 62.2108H58.6C58.3222 62.8849 57.9522 63.742 57.5085 64.6755C54.4073 63.976 51.2395 63.614 48.0603 63.5959V62.2108H46.8464V63.5919C43.6445 63.6493 40.4586 64.0572 37.3456 64.8085C36.8716 63.8184 36.4792 62.9099 36.1869 62.2016H34.8703C35.16 62.927 35.5918 63.9579 36.1409 65.1179C33.7897 65.7598 31.5037 66.6203 29.3128 67.688C27.5037 65.7038 25.7816 63.4866 24.8139 62.2002H23.3023C24.0212 63.1811 26.0094 65.8341 28.195 68.2568C26.6327 69.0856 25.1361 70.0329 23.7184 71.0902C20.4918 68.5782 17.6775 65.5773 15.3775 62.1963H13.92C17.5809 67.825 22.5896 72.4502 28.4915 75.652C34.3934 78.8538 41.0016 80.5308 47.7161 80.5308C54.4305 80.5308 61.0387 78.8538 66.9406 75.652C72.8425 72.4502 77.8512 67.825 81.5121 62.1963H80.0546L80.0809 62.2042ZM58.1892 66.0698C60.4669 66.6411 62.6873 67.4203 64.8224 68.3976C64.4735 68.765 64.1233 69.1178 63.7783 69.451C61.2411 71.7117 58.5174 73.754 55.6363 75.5562C54.722 75.0949 53.764 74.7257 52.7765 74.4542C53.5494 73.4377 54.9345 71.5576 56.4341 69.1876C57.071 68.1789 57.6568 67.1387 58.1892 66.0711V66.0698ZM48.0722 64.7967C51.0653 64.8146 54.0484 65.1456 56.9727 65.7841C56.5053 66.7058 55.9799 67.6511 55.4098 68.5491C53.6811 71.2653 52.1182 73.3416 51.4836 74.1513C50.3594 73.9303 49.2177 73.8105 48.0722 73.7932V64.7993V64.7967ZM46.8583 64.7967V73.7972C45.7004 73.8471 44.5497 74.0035 43.4205 74.2645C42.8676 73.5575 41.2244 71.4075 39.3995 68.5398C38.8584 67.688 38.3568 66.7887 37.9065 65.9145C40.8432 65.229 43.8444 64.8565 46.8596 64.8032L46.8583 64.7967ZM36.7017 66.2252C37.1968 67.2021 37.7551 68.2212 38.3765 69.1916C39.9565 71.6826 41.4166 73.647 42.1592 74.6161C41.2325 74.9057 40.3364 75.2854 39.4838 75.7497C36.4933 73.8935 33.6663 71.7858 31.0336 69.4496C30.7571 69.1863 30.4793 68.9046 30.1989 68.6162C32.2892 67.623 34.4659 66.8226 36.7017 66.2252ZM24.752 71.8538C26.1195 70.8556 27.5605 69.9621 29.0626 69.181C29.4379 69.576 29.8157 69.9592 30.1897 70.3186C32.7261 72.5931 35.4522 74.6466 38.3383 76.4567C37.779 76.8453 37.2579 77.2861 36.7821 77.7734C32.4604 76.5099 28.3903 74.5076 24.752 71.8551V71.8538ZM47.7417 79.3297C44.5074 79.3325 41.2852 78.9345 38.1487 78.1447C40.9283 76.0984 44.2895 74.9947 47.7411 74.9947C51.1927 74.9947 54.5538 76.0984 57.3334 78.1447C54.1975 78.9349 50.9757 79.3334 47.7417 79.331V79.3297ZM58.7001 77.7681C58.1319 77.1881 57.5009 76.6732 56.8186 76.2329C59.5809 74.4836 62.1909 72.5047 64.621 70.3173C65.0673 69.8881 65.5189 69.4259 65.9666 68.948C67.6322 69.7832 69.2259 70.7547 70.7315 71.8525C67.0928 74.5048 63.0222 76.5067 58.7001 77.7694V77.7681Z" fill="white"/>
</g>
</g>
</svg>
